<svg width="118" height="118" viewBox="0 0 118 118" fill="none" xmlns="http://www.w3.org/2000/svg">
<path d="M34.6693 78.6667C20.2876 74.2456 9.83333 60.8555 9.83333 45.0241C9.83333 25.5887 25.5887 9.83331 45.0241 9.83331C60.8555 9.83331 74.2456 20.2876 78.6667 34.6693" stroke="black" stroke-opacity="0.6" stroke-width="8.5" stroke-linecap="round"/>
<path d="M31.6852 49.1667C30.3066 47.147 29.5 44.7029 29.5 42.0696C29.5 35.1276 35.1053 29.5 42.0199 29.5C44.6767 29.5 47.1402 30.3308 49.1667 31.7478" stroke="black" stroke-opacity="0.6" stroke-width="8.5" stroke-linecap="round"/>
<path d="M45.7715 46.1101C53.0985 38.2195 108.212 57.5486 108.167 64.606C108.115 72.6083 86.6435 75.0701 80.6918 76.7398C77.113 77.7443 76.1542 78.7734 75.3292 82.5263C71.5916 99.5227 69.7154 107.976 65.4389 108.165C58.6219 108.467 38.6208 53.8105 45.7715 46.1101Z" stroke="black" stroke-opacity="0.6" stroke-width="8.5"/>
</svg>
