<svg xmlns="http://www.w3.org/2000/svg" viewBox="0 0 240 240" role="img" aria-label="QR Ph placeholder code">
  <rect width="240" height="240" rx="16" fill="#ffffff"/>
  <g fill="#2c1810">
    <!-- Finder patterns (three corners) -->
    <path d="M24 24h56v56H24zM36 36v32h32V36z" fill-rule="evenodd"/>
    <rect x="44" y="44" width="16" height="16"/>
    <path d="M160 24h56v56h-56zM172 36v32h32V36z" fill-rule="evenodd"/>
    <rect x="180" y="44" width="16" height="16"/>
    <path d="M24 160h56v56H24zM36 172v32h32v-32z" fill-rule="evenodd"/>
    <rect x="44" y="180" width="16" height="16"/>
    <!-- Timing / data modules (decorative placeholder) -->
    <rect x="96" y="32" width="12" height="12"/>
    <rect x="120" y="32" width="12" height="12"/>
    <rect x="108" y="56" width="12" height="12"/>
    <rect x="132" y="56" width="12" height="12"/>
    <rect x="96" y="80" width="12" height="12"/>
    <rect x="132" y="80" width="12" height="12"/>
    <rect x="32" y="96" width="12" height="12"/>
    <rect x="56" y="96" width="12" height="12"/>
    <rect x="96" y="104" width="12" height="12"/>
    <rect x="120" y="104" width="12" height="12"/>
    <rect x="156" y="96" width="12" height="12"/>
    <rect x="192" y="96" width="12" height="12"/>
    <rect x="108" y="128" width="12" height="12"/>
    <rect x="144" y="128" width="12" height="12"/>
    <rect x="180" y="128" width="12" height="12"/>
    <rect x="96" y="152" width="12" height="12"/>
    <rect x="132" y="152" width="12" height="12"/>
    <rect x="168" y="160" width="12" height="12"/>
    <rect x="204" y="156" width="12" height="12"/>
    <rect x="120" y="176" width="12" height="12"/>
    <rect x="156" y="184" width="12" height="12"/>
    <rect x="192" y="192" width="12" height="12"/>
    <rect x="108" y="200" width="12" height="12"/>
    <rect x="144" y="204" width="12" height="12"/>
    <rect x="180" y="204" width="12" height="12"/>
  </g>
  <g transform="translate(120 130)">
    <rect x="-34" y="-16" width="68" height="32" rx="6" fill="#c9a962"/>
    <text x="0" y="6" text-anchor="middle" font-family="Arial, Helvetica, sans-serif" font-size="20" font-weight="700" fill="#2c1810">QR Ph</text>
  </g>
</svg>
